<?xml version="1.0" encoding="UTF-8" standalone="no"?>
<!-- Created with Inkscape (http://www.inkscape.org/) -->

<svg
   version="1.1"
   id="svg1"
   width="1202.6667"
   height="705.33331"
   viewBox="0 0 1202.6667 705.33331"
   sodipodi:docname="auto_rotate_icon_options.png"
   xmlns:inkscape="http://www.inkscape.org/namespaces/inkscape"
   xmlns:sodipodi="http://sodipodi.sourceforge.net/DTD/sodipodi-0.dtd"
   xmlns="http://www.w3.org/2000/svg"
   xmlns:svg="http://www.w3.org/2000/svg">
  <defs
     id="defs1" />
  <sodipodi:namedview
     id="namedview1"
     pagecolor="#ffffff"
     bordercolor="#000000"
     borderopacity="0.25"
     inkscape:showpageshadow="2"
     inkscape:pageopacity="0.0"
     inkscape:pagecheckerboard="0"
     inkscape:deskcolor="#d1d1d1">
    <inkscape:page
       x="0"
       y="0"
       width="1202.6667"
       height="705.33331"
       id="page2"
       margin="0"
       bleed="0" />
  </sodipodi:namedview>
  <g
     inkscape:groupmode="layer"
     inkscape:label="Image"
     id="g1">
    <path
       style="fill:#000000;stroke-width:1.31185"
       d="m 439.45118,701.37812 c -2.89504,-1.69701 -6.86467,-5.75485 -8.82143,-9.01726 -3.35304,-5.59046 -3.60386,-8.39292 -4.35968,-48.70888 l -0.80196,-42.77721 -32.87984,-6.07159 C 339.14834,584.93486 296.71244,573.75493 251.44549,557.61844 93.078979,501.16471 1.4158496,410.27148 1.1007803,309.37643 1.012486,281.09986 4.1631056,264.6558 14.436162,239.77502 83.455246,72.614857 412.23807,-31.007757 745.3971,9.397802 926.01419,31.303051 1075.4515,94.02372 1149.3978,178.9618 c 33.5321,38.5167 50.278,76.85481 52.5219,120.244 5.9185,114.44553 -103.5186,215.83357 -294.44734,272.79045 -61.03611,18.20804 -144.18951,32.96182 -215.10568,38.16602 l -16.99104,1.24694 -1.04449,-18.76141 c -0.57451,-10.31883 -1.04835,-49.87756 -1.05291,-87.90838 l -0.0121,-69.14712 3.60877,-0.0372 c 8.49551,-0.0873 66.39128,-7.71038 87.01127,-11.45734 91.89442,-16.69814 170.48573,-47.59927 220.99183,-86.89091 20.93599,-16.28727 42.05979,-41.09007 49.42299,-58.03018 4.9345,-11.35267 5.3922,-13.84964 5.4224,-29.59489 0.03,-15.56563 -0.4585,-18.38443 -5.1501,-29.72891 C 1007.984,155.55927 901.7005,98.554721 761.15597,73.207108 665.73194,55.997095 539.62672,55.98565 441.50347,73.178066 384.10161,83.235596 326.75352,100.64047 283.57539,121.10849 210.36008,155.81527 165.21013,201.5486 162.15862,244.0941 c -2.63593,36.75128 24.99909,74.88341 79.65987,109.91835 39.43104,25.27334 102.27094,49.74937 160.38955,62.47152 10.14463,2.22062 19.70785,4.48188 21.25161,5.02508 2.61415,0.91976 2.80681,-1.93649 2.80681,-41.61267 0,-37.79763 0.33481,-43.34961 2.96979,-49.2468 5.63287,-12.60656 17.51432,-18.10675 30.30671,-14.02932 4.79269,1.52748 166.87096,169.59696 171.56776,177.90963 4.32558,7.65572 4.8806,20.472 1.2483,28.82573 -2.2828,5.25011 -156.87607,167.00108 -168.83809,176.65539 -6.67242,5.38516 -16.28697,5.93095 -24.07336,1.36682 z"
       id="path1" />
  </g>
</svg>
