<?xml version="1.0" encoding="UTF-8" standalone="no"?>
<!-- Created with Inkscape (http://www.inkscape.org/) -->

<svg
   version="1.1"
   id="svg1"
   width="182.88"
   height="148.39999"
   viewBox="0 0 182.88 148.39999"
   sodipodi:docname="invisible_icon.png"
   xmlns:inkscape="http://www.inkscape.org/namespaces/inkscape"
   xmlns:sodipodi="http://sodipodi.sourceforge.net/DTD/sodipodi-0.dtd"
   xmlns="http://www.w3.org/2000/svg"
   xmlns:svg="http://www.w3.org/2000/svg">
  <defs
     id="defs1" />
  <sodipodi:namedview
     id="namedview1"
     pagecolor="#ffffff"
     bordercolor="#000000"
     borderopacity="0.25"
     inkscape:showpageshadow="2"
     inkscape:pageopacity="0.0"
     inkscape:pagecheckerboard="0"
     inkscape:deskcolor="#d1d1d1">
    <inkscape:page
       x="0"
       y="0"
       width="182.88"
       height="148.39999"
       id="page2"
       margin="0"
       bleed="0" />
  </sodipodi:namedview>
  <g
     inkscape:groupmode="layer"
     inkscape:label="Image"
     id="g1">
    <path
       style="fill:#000000"
       d="m 24.360001,148.35168 c -0.132,-0.0196 -0.51,-0.0924 -0.84,-0.16187 -0.33,-0.0695 -0.905802,-0.25208 -1.279561,-0.40578 -0.373758,-0.1537 -0.979442,-0.47493 -1.345964,-0.71384 -0.366522,-0.23891 -0.932778,-0.70076 -1.258346,-1.02633 -0.325569,-0.32556 -0.787416,-0.89182 -1.026327,-1.25834 -0.238911,-0.36652 -0.56014,-0.97221 -0.713842,-1.34597 -0.153702,-0.37375 -0.346155,-0.96756 -0.427674,-1.31956 -0.105364,-0.45496 -0.148216,-0.95224 -0.148216,-1.72 0,-0.76775 0.04285,-1.26503 0.148216,-1.72 0.08152,-0.352 0.273972,-0.9458 0.427674,-1.31956 0.153702,-0.37375 0.477361,-0.98575 0.719242,-1.36 0.378818,-0.58611 1.683095,-1.92495 9.408371,-9.65769 4.932723,-4.93749 8.952351,-8.99136 8.932507,-9.00861 -0.01984,-0.0173 -0.54008,-0.36642 -1.15608,-0.77594 -0.616,-0.40952 -1.606,-1.08764 -2.2,-1.50693 -0.594,-0.4193 -1.512,-1.08633 -2.04,-1.4823 -0.528,-0.39596 -1.374,-1.04475 -1.88,-1.44175 -0.506,-0.397 -1.442,-1.15252 -2.08,-1.67894 -0.638,-0.52641 -1.43,-1.19328 -1.76,-1.48194 -0.33,-0.28866 -1.176,-1.04571 -1.88,-1.68233 -0.704,-0.63663 -2.199462,-2.07697 -3.323249,-3.20076 -1.123786,-1.12378 -2.565588,-2.61924 -3.204004,-3.32324 -0.638416,-0.704 -1.501236,-1.676004 -1.917378,-2.160004 -0.416142,-0.484 -1.154806,-1.366 -1.641476,-1.96 -0.48667,-0.594 -1.301146,-1.62 -1.809947,-2.28 -0.508801,-0.66 -1.293095,-1.704 -1.742874,-2.32 -0.4497798,-0.616 -1.5106067,-2.164 -2.3573934,-3.44 -0.8467867,-1.276 -1.9189037,-2.95284 -2.3824821,-3.726311 -0.4635785,-0.773472 -1.212977,-2.069472 -1.6653301,-2.88 C 3.4635143,81.183156 2.7412603,79.835997 2.3108585,78.999997 1.8804568,78.163997 1.1858299,76.751144 0.76724316,75.860324 L 0.00617643,74.240651 0.41213107,73.340324 c 0.22327505,-0.49518 0.84741843,-1.782327 1.38698543,-2.860327 0.5395669,-1.078 1.2776833,-2.5 1.6402587,-3.16 0.3625754,-0.66 0.875578,-1.578 1.1400059,-2.04 0.2644279,-0.462 0.8425199,-1.434 1.2846489,-2.16 0.4421289,-0.726 1.2871356,-2.056695 1.8777925,-2.9571 0.590657,-0.900406 1.4734601,-2.196406 1.9617848,-2.88 0.4883247,-0.683595 1.2120197,-1.674899 1.6082117,-2.202899 0.396191,-0.528 1.062274,-1.392 1.480183,-1.92 0.417909,-0.528 1.103321,-1.374 1.523138,-1.88 0.419817,-0.506 1.139299,-1.352 1.598847,-1.88 0.459549,-0.528 1.215496,-1.374 1.679882,-1.88 0.464387,-0.506 1.600743,-1.688535 2.525236,-2.627856 0.924492,-0.939321 2.310896,-2.293709 3.080896,-3.009752 0.77,-0.716042 1.85,-1.693586 2.4,-2.17232 0.55,-0.478733 1.414,-1.214182 1.92,-1.63433 0.506,-0.420148 1.352,-1.105831 1.88,-1.52374 0.528,-0.417909 1.392,-1.083991 1.92,-1.480183 0.528,-0.396192 1.519305,-1.119887 2.202899,-1.608211 0.683595,-0.488325 1.979595,-1.371128 2.88,-1.961785 0.900406,-0.590657 2.231101,-1.435663 2.957101,-1.877792 0.726,-0.442129 1.698,-1.020221 2.16,-1.284649 0.462,-0.264428 1.38,-0.77741 2.04,-1.139961 0.66,-0.36255 2.064,-1.091927 3.12,-1.620836 1.056,-0.52891 2.55,-1.247454 3.32,-1.596765 0.77,-0.349311 1.94,-0.862115 2.6,-1.139563 0.66,-0.277448 1.776,-0.729061 2.48,-1.003584 0.704,-0.274522 1.964001,-0.74343 2.800001,-1.042017 0.836,-0.298587 2.33,-0.799848 3.32,-1.113914 0.99,-0.314066 2.649729,-0.803506 3.688287,-1.087644 1.038558,-0.284139 2.640558,-0.692894 3.56,-0.908346 0.919442,-0.215452 2.319713,-0.519714 3.111713,-0.676136 0.792,-0.156423 1.836,-0.35663 2.32,-0.444905 0.484,-0.08828 1.456,-0.249687 2.16,-0.358692 0.704,-0.109005 1.856,-0.271117 2.56,-0.360248 0.704,-0.08913 2,-0.233173 2.88,-0.320091 0.88,-0.08692 2.122,-0.196204 2.76,-0.242858 0.638,-0.04665 1.952,-0.120362 2.92,-0.163797 0.968,-0.04344 2.894,-0.07897 4.28,-0.07897 1.386,0 3.312001,0.03554 4.280001,0.07897 0.968,0.04344 2.282,0.117144 2.92,0.163797 0.638,0.04665 1.879997,0.155939 2.759997,0.242858 0.88,0.08692 2.176,0.230959 2.88,0.320091 0.704,0.08913 1.856,0.251243 2.56,0.360248 0.704,0.109005 1.676,0.270416 2.16,0.358692 0.484,0.08828 1.528,0.288482 2.32,0.444905 0.792,0.156422 2.19227,0.460684 3.11172,0.676136 0.91944,0.215452 2.52144,0.624207 3.56,0.908346 1.03855,0.284138 2.69828,0.773578 3.68828,1.087644 0.99,0.314066 2.484,0.815327 3.32,1.113914 0.836,0.298587 2.096,0.767478 2.8,1.04198 0.704,0.274502 1.74584,0.694828 2.31519,0.934057 l 1.03519,0.434963 10.68481,-10.676481 c 9.25621,-9.2489907 10.77579,-10.7352613 11.36525,-11.1161173 0.37425,-0.2418005 0.98625,-0.56539327 1.36,-0.719095 0.37376,-0.15370172 0.96756,-0.34556041 1.31956,-0.42635263 0.45167,-0.10366759 0.95782,-0.14689495 1.72,-0.14689495 0.76219,0 1.26834,0.0432274 1.72,0.14689495 0.352,0.0807922 0.94581,0.27265091 1.31956,0.42635263 0.37376,0.15370173 0.97945,0.4749305 1.34597,0.7138418 0.36652,0.2389113 0.93278,0.7007582 1.25835,1.0263264 0.32556,0.3255683 0.78741,0.8918242 1.02632,1.2583464 0.23891,0.3665223 0.56014,0.9722062 0.71384,1.3459643 0.15371,0.3737581 0.34556,0.9675602 0.42636,1.3195601 0.10366,0.4516647 0.14689,0.9578159 0.14689,1.72 0,0.7621841 -0.0432,1.2683352 -0.14689,1.7199999 -0.0808,0.3520004 -0.27265,0.9458024 -0.42636,1.3195604 -0.1537,0.373758 -0.47736,0.985758 -0.71924,1.36 -0.37881,0.586098 -1.68248,1.924338 -9.4028,9.652126 l -8.96303,8.971687 1.21704,0.813952 c 0.66937,0.447674 1.7991,1.231181 2.51051,1.741126 0.71142,0.509945 1.65348,1.198759 2.09348,1.530698 0.44,0.331939 1.232,0.945336 1.76,1.363105 0.528,0.417769 1.374,1.103338 1.88,1.523486 0.506,0.420148 1.37,1.155597 1.92,1.63433 0.55,0.478734 1.63,1.456278 2.4,2.17232 0.77,0.716043 2.15641,2.070431 3.0809,3.009752 0.92449,0.939321 2.06085,2.121856 2.52524,2.627856 0.46438,0.506 1.22033,1.352 1.67988,1.88 0.45955,0.528 1.17903,1.374 1.59884,1.88 0.41982,0.506 1.10523,1.352 1.52314,1.88 0.41791,0.528 1.08399,1.392 1.48019,1.92 0.39619,0.528 1.11988,1.519304 1.60821,2.202899 0.48832,0.683594 1.37113,1.979594 1.96178,2.88 0.59066,0.900405 1.43567,2.2311 1.87779,2.9571 0.44213,0.726 1.02023,1.698 1.28465,2.16 0.26443,0.462 0.77743,1.38 1.14001,2.04 0.36258,0.66 1.10069,2.082 1.64026,3.16 0.53957,1.078 1.16371,2.365147 1.38698,2.860327 l 0.40596,0.900327 -0.76107,1.619673 c -0.41858,0.89082 -1.11321,2.303673 -1.54361,3.139673 -0.43041,0.836 -1.15266,2.183159 -1.60501,2.993688 -0.45236,0.810528 -1.20175,2.106528 -1.66533,2.88 -0.46358,0.773471 -1.5357,2.450311 -2.38248,3.726311 -0.84679,1.276 -1.90762,2.824 -2.3574,3.44 -0.44978,0.616 -1.23407,1.66 -1.74287,2.32 -0.5088,0.66 -1.32328,1.686 -1.80995,2.28 -0.48667,0.594 -1.22533,1.476 -1.64148,1.96 -0.41614,0.484 -1.27896,1.456004 -1.91737,2.160004 -0.63842,0.704 -2.08022,2.19946 -3.20401,3.32324 -1.12378,1.12379 -2.61925,2.56413 -3.32325,3.20076 -0.704,0.63662 -1.55,1.39367 -1.88,1.68233 -0.33,0.28866 -1.122,0.95553 -1.76,1.48194 -0.638,0.52642 -1.574,1.28194 -2.08,1.67894 -0.506,0.397 -1.352,1.04579 -1.88,1.44175 -0.528,0.39597 -1.45821,1.07242 -2.06713,1.50324 -0.60893,0.43081 -1.88693,1.29771 -2.84,1.92643 -0.95308,0.62873 -2.41886,1.55664 -3.25729,2.06204 -0.83843,0.50539 -2.18843,1.28961 -3,1.7427 -0.81157,0.4531 -2.19558,1.19355 -3.07558,1.64544 -0.88,0.45189 -2.26235,1.13157 -3.07188,1.51041 -0.80954,0.37884 -2.01554,0.92491 -2.68,1.2135 -0.66447,0.28859 -1.83812,0.77683 -2.60812,1.08497 -0.77,0.30814 -2.012,0.78582 -2.76,1.0615 -0.748,0.27568 -2.242,0.79073 -3.32,1.14456 -1.078,0.35383 -2.59,0.82349 -3.36,1.04369 -0.77,0.22021 -1.886,0.52829 -2.48,0.68464 -0.594,0.15634 -1.764,0.44392 -2.6,0.63907 -0.836,0.19514 -2.26556,0.5022 -3.1768,0.68235 -0.91124,0.18015 -2.42324,0.45235 -3.36,0.6049 -0.93676,0.15254 -2.4052,0.36778 -3.2632,0.47832 -0.858,0.11053 -2.298,0.27191 -3.2,0.35863 -0.902,0.0867 -2.179997,0.196 -2.839997,0.24288 -0.66,0.0469 -2.1,0.11998 -3.2,0.16246 -1.1,0.0425 -2.774001,0.0772 -3.720001,0.0772 -0.946,0 -2.62,-0.0348 -3.72,-0.0772 -1.1,-0.0425 -2.54,-0.11559 -3.2,-0.16246 -0.66,-0.0469 -1.938,-0.15617 -2.84,-0.24288 -0.902,-0.0867 -2.342,-0.2481 -3.2,-0.35863 -0.858,-0.11054 -2.32644,-0.32578 -3.263199,-0.47832 -0.93676,-0.15255 -2.44876,-0.42475 -3.36,-0.6049 -0.911241,-0.18015 -2.340801,-0.48721 -3.176801,-0.68235 -0.836,-0.19515 -2.006,-0.48273 -2.6,-0.63907 -0.594,-0.15635 -1.71,-0.46443 -2.48,-0.68464 -0.77,-0.2202 -2.282,-0.68986 -3.36,-1.04369 -1.078,-0.35383 -2.572,-0.86938 -3.32,-1.14568 -0.748001,-0.27629 -1.810001,-0.68016 -2.360001,-0.89748 -0.55,-0.21732 -1.408642,-0.56777 -1.908095,-0.77878 l -0.908095,-0.38365 -10.691905,10.68357 c -9.389177,9.38186 -10.774758,10.73633 -11.371905,11.11659 -0.374,0.23817 -0.932,0.54295 -1.24,0.6773 -0.308,0.13435 -0.866,0.32242 -1.24,0.41792 -0.449584,0.11481 -1.005295,0.18383 -1.64,0.20368 -0.528,0.0165 -1.068,0.014 -1.2,-0.006 z M 96.720003,117.2828 c 0.638,-0.0451 1.772,-0.13747 2.52,-0.2053 0.748,-0.0678 2.079997,-0.21372 2.959997,-0.32418 0.88,-0.11047 2.43424,-0.34196 3.45387,-0.51442 1.01963,-0.17247 2.45963,-0.44271 3.2,-0.60054 0.74037,-0.15783 2.01213,-0.45097 2.82613,-0.65144 0.814,-0.20046 2.092,-0.53785 2.84,-0.74975 0.748,-0.2119 2.044,-0.60756 2.88,-0.87924 0.836,-0.27168 2.24698,-0.76072 3.1355,-1.08675 0.88853,-0.32604 2.27453,-0.8668 3.08,-1.2017 0.80548,-0.33491 2.1305,-0.91458 2.9445,-1.28816 0.814,-0.37359 2.11,-0.998 2.88,-1.38759 0.77,-0.38959 1.994,-1.03846 2.72,-1.44193 0.726,-0.40348 1.77,-1.00351 2.32,-1.3334 0.55,-0.3299 1.486,-0.9085 2.08,-1.28579 0.594,-0.37729 1.656,-1.07935 2.36,-1.56014 0.704,-0.48079 1.838,-1.28851 2.52,-1.79494 0.682,-0.50643 1.564,-1.175875 1.96,-1.487658 0.396,-0.311784 1.23008,-0.990638 1.8535,-1.508564 0.62342,-0.517926 1.64942,-1.398291 2.28,-1.956366 0.63058,-0.558076 2.15681,-2.024992 3.39164,-3.259814 1.23482,-1.234823 2.70173,-2.761059 3.25981,-3.391637 0.55808,-0.630578 1.43844,-1.656578 1.95637,-2.28 0.51792,-0.623422 1.19591,-1.457495 1.50663,-1.853495 0.31072,-0.395999 0.83492,-1.079999 1.1649,-1.519999 0.32997,-0.44 0.83375,-1.124 1.1195,-1.52 0.28576,-0.396 0.95365,-1.368 1.48422,-2.16 0.53056,-0.792 1.3406,-2.052 1.80009,-2.8 0.45949,-0.748 1.04352,-1.729 1.29783,-2.18 l 0.46239,-0.82 -0.46239,-0.82 c -0.25431,-0.451 -0.83834,-1.432 -1.29783,-2.18 -0.45949,-0.748 -1.26953,-2.008 -1.80009,-2.8 -0.53057,-0.792 -1.19846,-1.764 -1.48422,-2.16 -0.28575,-0.396 -0.78953,-1.08 -1.1195,-1.52 -0.32998,-0.44 -0.85418,-1.124 -1.1649,-1.52 -0.31072,-0.396 -0.98871,-1.230072 -1.50663,-1.853494 -0.51793,-0.623422 -1.39829,-1.649422 -1.95637,-2.28 -0.55808,-0.630578 -2.02499,-2.156814 -3.25981,-3.391637 -1.23483,-1.234822 -2.76106,-2.701738 -3.39164,-3.259814 -0.63058,-0.558075 -1.65658,-1.43844 -2.28,-1.956366 -0.62342,-0.517926 -1.4575,-1.19678 -1.8535,-1.508564 -0.396,-0.311783 -1.278,-0.98123 -1.96,-1.487659 -0.682,-0.506429 -1.816,-1.314151 -2.52,-1.794938 -0.704,-0.480787 -1.766,-1.181423 -2.36,-1.556969 -0.594,-0.375546 -1.35,-0.85031 -1.68,-1.055032 l -0.6,-0.372222 -5.62901,5.627434 -5.62902,5.627434 0.61353,1.030914 c 0.33745,0.567002 0.91376,1.624914 1.2807,2.350914 0.36695,0.726 0.87225,1.806 1.1229,2.4 0.25065,0.594 0.68415,1.763999 0.96334,2.599999 0.27918,0.836 0.6334,2.024 0.78717,2.64 0.15376,0.616 0.36936,1.588 0.47911,2.16 0.10975,0.572 0.25465,1.436 0.32199,1.92 0.0673,0.484 0.1674,1.294 0.22234,1.8 0.0579,0.533487 0.0999,1.961904 0.0999,3.4 0,1.438096 -0.042,2.866513 -0.0999,3.4 -0.0549,0.506 -0.155,1.316 -0.22234,1.8 -0.0673,0.484 -0.21224,1.348 -0.32199,1.92 -0.10975,0.572 -0.32535,1.544 -0.47911,2.16 -0.15377,0.616 -0.50799,1.803999 -0.78717,2.639999 -0.27919,0.836 -0.71133,2.002219 -0.96033,2.591597 -0.249,0.589378 -0.71722,1.599709 -1.04049,2.24518 -0.32328,0.645471 -0.79208,1.531252 -1.0418,1.968403 -0.24971,0.437151 -0.86182,1.40682 -1.36025,2.15482 -0.49843,0.748 -1.36595,1.936 -1.92783,2.64 -0.65909,0.825787 -1.63375,1.892146 -2.74667,3.005064 -1.11292,1.11292 -2.17928,2.08758 -3.00507,2.74667 -0.704,0.56188 -1.892,1.42941 -2.64,1.92783 -0.748,0.49843 -1.71767,1.11054 -2.15482,1.36026 -0.43715,0.24971 -1.32293,0.71852 -1.9684,1.04179 -0.64547,0.32327 -1.6558,0.7915 -2.24518,1.04049 -0.58938,0.249 -1.7556,0.68115 -2.5916,0.96033 -0.836,0.27918 -2.024,0.6334 -2.64,0.78717 -0.616,0.15376 -1.587997,0.36936 -2.159997,0.47911 -0.572,0.10975 -1.436,0.25465 -1.92,0.32199 -0.484,0.0674 -1.294,0.1674 -1.8,0.22234 -0.533488,0.0579 -1.961905,0.0999 -3.400001,0.0999 -1.438096,0 -2.866512,-0.042 -3.4,-0.0999 -0.506,-0.0549 -1.316,-0.15499 -1.8,-0.22234 -0.484,-0.0673 -1.348,-0.21224 -1.92,-0.32199 -0.572,-0.10975 -1.544,-0.32535 -2.16,-0.47911 -0.616,-0.15377 -1.804,-0.50799 -2.64,-0.78717 -0.836,-0.27918 -2.006,-0.71268 -2.6,-0.96333 -0.594,-0.25066 -1.674,-0.75596 -2.4,-1.1229 -0.726,-0.36695 -1.783834,-0.94321 -2.350743,-1.2806 l -1.030743,-0.61343 -3.469257,3.46857 c -1.908092,1.90771 -3.469257,3.48936 -3.469257,3.51476 0,0.0254 0.747,0.2854 1.66,0.57775 0.913,0.29234 2.164,0.67265 2.78,0.84512 0.616,0.17247 1.786,0.4777 2.6,0.6783 0.814,0.2006 2.08576,0.49386 2.826133,0.65169 0.740373,0.15783 2.180373,0.42807 3.2,0.60054 1.019627,0.17246 2.573867,0.40388 3.453867,0.51426 0.88,0.11039 2.194,0.25533 2.92,0.32209 0.726,0.0668 1.968,0.15888 2.76,0.20468 0.792,0.0458 1.674,0.0962 1.96,0.112 0.286,0.0158 2.032,0.0161 3.88,7.7e-4 1.848001,-0.0154 3.882001,-0.0648 4.520001,-0.1099 z M 59.1645,93.55091 c -0.337443,-0.567003 -0.913758,-1.624914 -1.2807,-2.350914 -0.366942,-0.726 -0.872246,-1.806 -1.122898,-2.4 -0.250652,-0.594 -0.684151,-1.764 -0.963332,-2.6 -0.279181,-0.836 -0.633408,-2.023999 -0.78717,-2.639999 -0.153763,-0.616 -0.369365,-1.588 -0.479116,-2.16 -0.109752,-0.572 -0.254648,-1.436 -0.321991,-1.92 -0.06734,-0.484 -0.167395,-1.294 -0.222337,-1.8 -0.05793,-0.533487 -0.09989,-1.961904 -0.09989,-3.4 0,-1.438096 0.04197,-2.866513 0.09989,-3.4 0.05494,-0.506 0.154994,-1.316 0.222337,-1.8 0.06734,-0.484 0.212239,-1.348 0.321991,-1.92 0.109751,-0.572 0.325353,-1.544 0.479116,-2.16 0.153762,-0.616 0.507989,-1.804 0.78717,-2.64 0.279181,-0.836 0.711326,-2.002218 0.960324,-2.591596 0.248997,-0.589378 0.717219,-1.599709 1.040493,-2.24518 0.323274,-0.645471 0.792082,-1.531253 1.041794,-1.968403 0.249713,-0.437151 0.861827,-1.40682 1.360253,-2.15482 0.498427,-0.748 1.365953,-1.936 1.927835,-2.64 0.659084,-0.825787 1.633751,-1.892146 2.746669,-3.005064 1.112918,-1.112918 2.179277,-2.087585 3.005064,-2.746668 0.704,-0.561883 1.892,-1.429408 2.64,-1.927835 0.748,-0.498427 1.717669,-1.110541 2.15482,-1.360253 0.437151,-0.249713 1.322932,-0.71852 1.968403,-1.041794 0.645472,-0.323274 1.655803,-0.791496 2.245181,-1.040493 0.589378,-0.248998 1.755596,-0.681144 2.591596,-0.960325 0.836,-0.279181 2.024,-0.633407 2.64,-0.787169 0.616,-0.153763 1.588,-0.369365 2.16,-0.479116 0.572,-0.109752 1.436,-0.254648 1.92,-0.321991 0.484,-0.06734 1.294,-0.167395 1.8,-0.222337 0.533488,-0.05793 1.961904,-0.0999 3.4,-0.0999 1.438096,0 2.866513,0.04197 3.400001,0.0999 0.506,0.05494 1.316,0.154994 1.8,0.222337 0.484,0.06734 1.348,0.212239 1.92,0.321991 0.572,0.109751 1.543997,0.325353 2.159997,0.479116 0.616,0.153762 1.804,0.507988 2.64,0.787169 0.836,0.279181 2.006,0.712681 2.6,0.963333 0.594,0.250652 1.674,0.755956 2.4,1.122898 0.726,0.366942 1.78384,0.943212 2.35075,1.2806 l 1.03074,0.613432 3.50926,-3.508574 c 1.93009,-1.929716 3.50925,-3.529362 3.50925,-3.55477 0,-0.02541 -0.747,-0.285388 -1.66,-0.577736 -0.913,-0.292349 -2.164,-0.672653 -2.78,-0.845122 -0.616,-0.172468 -1.786,-0.477706 -2.6,-0.678306 -0.814,-0.2006 -2.08576,-0.49386 -2.82613,-0.65169 -0.74037,-0.157829 -2.18037,-0.428069 -3.2,-0.600533 -1.01963,-0.172463 -2.57387,-0.403883 -3.45387,-0.514267 -0.88,-0.110383 -2.194,-0.255117 -2.919997,-0.32163 -0.726,-0.06651 -1.95,-0.165649 -2.72,-0.220302 -0.812395,-0.05766 -2.961351,-0.09937 -5.120001,-0.09937 -2.158649,0 -4.307605,0.04171 -5.12,0.09937 -0.77,0.05465 -1.994,0.153789 -2.72,0.220302 -0.726,0.06651 -2.04,0.211247 -2.92,0.32163 -0.88,0.110384 -2.43424,0.341804 -3.453867,0.514267 -1.019627,0.172464 -2.459627,0.442704 -3.2,0.600533 -0.740373,0.15783 -2.012133,0.450977 -2.826133,0.65144 -0.814,0.200462 -2.092,0.537849 -2.84,0.749749 -0.748,0.2119 -2.044,0.607559 -2.88,0.879242 -0.836,0.271683 -2.246976,0.760723 -3.135502,1.086755 -0.888526,0.326032 -2.274526,0.866797 -3.08,1.2017 -0.805474,0.334902 -2.130498,0.914574 -2.944498,1.288159 -0.814001,0.373586 -2.110001,0.998 -2.880001,1.387588 -0.77,0.389588 -1.994,1.038458 -2.72,1.441933 -0.726,0.403475 -1.77,1.003504 -2.32,1.333399 -0.55,0.329894 -1.486,0.9085 -2.08,1.285789 -0.594,0.37729 -1.656,1.079353 -2.36,1.56014 -0.704,0.480787 -1.838,1.288509 -2.52,1.794938 -0.682,0.506429 -1.564,1.175876 -1.96,1.487659 -0.396,0.311784 -1.230073,0.990638 -1.853495,1.508564 -0.623422,0.517926 -1.649422,1.398291 -2.28,1.956366 -0.630578,0.558076 -2.156814,2.024992 -3.391637,3.259814 -1.234822,1.234823 -2.701738,2.761059 -3.259814,3.391637 -0.558075,0.630578 -1.43844,1.656578 -1.956367,2.28 -0.517926,0.623422 -1.195909,1.457494 -1.506629,1.853494 -0.310721,0.396 -0.834925,1.08 -1.1649,1.52 -0.329975,0.44 -0.833753,1.124 -1.119508,1.52 -0.285754,0.396 -0.95365,1.368 -1.484212,2.16 -0.530562,0.792 -1.340605,2.052 -1.800096,2.8 -0.45949,0.748 -1.043514,1.729 -1.297829,2.18 l -0.462393,0.82 0.462393,0.82 c 0.254315,0.451 0.838339,1.432 1.297829,2.18 0.459491,0.748 1.269534,2.008 1.800096,2.8 0.530562,0.792 1.198458,1.764 1.484212,2.16 0.285755,0.396 0.789533,1.08 1.119508,1.52 0.329975,0.44 0.854179,1.124 1.1649,1.519999 0.31072,0.396 0.988703,1.230073 1.506629,1.853495 0.517927,0.623422 1.398292,1.649422 1.956367,2.28 0.558076,0.630578 2.024992,2.156814 3.259814,3.391637 1.234823,1.234822 2.761059,2.701738 3.391637,3.259814 0.630578,0.558075 1.656578,1.43844 2.28,1.956366 0.623422,0.517926 1.457495,1.19678 1.853495,1.508564 0.396,0.311783 1.278,0.981228 1.96,1.487658 0.682,0.50643 1.816,1.31415 2.52,1.79494 0.704,0.48079 1.766,1.18142 2.36,1.55697 0.594,0.37554 1.35,0.85031 1.68,1.05503 l 0.6,0.37222 5.589016,-5.58743 5.589015,-5.587437 z m 34.075502,2.20777 c 0.484001,-0.04465 1.323993,-0.155123 1.86665,-0.245493 0.542658,-0.09037 1.429696,-0.285736 1.971196,-0.434145 0.5415,-0.148408 1.339508,-0.399906 1.77335,-0.558884 0.433843,-0.158977 1.364802,-0.571993 2.068802,-0.917812 0.704,-0.34582 1.712,-0.913069 2.24,-1.260553 0.528,-0.347485 1.33713,-0.935542 1.79806,-1.306794 0.46093,-0.371251 1.21693,-1.053878 1.68,-1.516948 0.46307,-0.46307 1.14569,-1.21907 1.51695,-1.68 0.37125,-0.46093 0.9593,-1.270055 1.30679,-1.798055 0.34748,-0.528 0.91473,-1.535999 1.26055,-2.239999 0.34582,-0.704 0.75884,-1.634962 0.91782,-2.068805 0.15897,-0.433842 0.41009,-1.230464 0.55804,-1.77027 0.14794,-0.539807 0.34191,-1.410816 0.43103,-1.935576 0.0891,-0.524761 0.20508,-1.438139 0.25766,-2.02973 0.0583,-0.655312 0.0764,-1.60705 0.0465,-2.435619 -0.027,-0.748 -0.11991,-1.833625 -0.20647,-2.412501 -0.0866,-0.578876 -0.23256,-1.370876 -0.32444,-1.76 -0.0919,-0.389124 -0.25963,-1.013499 -0.37279,-1.387499 -0.11316,-0.374 -0.3329,-1.013 -0.4883,-1.42 -0.15541,-0.407 -0.30484,-0.74 -0.33207,-0.74 -0.0272,0 -6.40196,6.352519 -14.166057,14.116709 -7.764096,7.76419 -14.096787,14.136461 -14.072644,14.160603 0.02414,0.02414 0.428721,0.188911 0.899064,0.366153 0.470343,0.177242 1.301079,0.444468 1.84608,0.593836 0.545,0.149368 1.434902,0.346334 1.97756,0.437701 0.542657,0.09137 1.310649,0.197004 1.706649,0.234748 0.396,0.03774 1.224,0.07346 1.84,0.07937 0.616,0.0059 1.516,-0.02579 2,-0.07044 z M 85.756711,68.603288 c 7.764097,-7.76419 14.096787,-14.136461 14.072645,-14.160603 -0.02414,-0.02414 -0.428721,-0.188911 -0.899064,-0.366153 -0.470343,-0.177242 -1.301079,-0.444468 -1.84608,-0.593836 -0.545,-0.149368 -1.434902,-0.345518 -1.97756,-0.435889 -0.542657,-0.09037 -1.382649,-0.200842 -1.86665,-0.245493 -0.484,-0.04465 -1.312,-0.08118 -1.84,-0.08118 -0.528,0 -1.356,0.03653 -1.84,0.08118 -0.484,0.04465 -1.323992,0.155123 -1.866649,0.245493 -0.542658,0.09037 -1.429696,0.285736 -1.971196,0.434145 -0.5415,0.148408 -1.339508,0.399906 -1.77335,0.558883 -0.433843,0.158978 -1.364805,0.571994 -2.068805,0.917813 -0.704,0.34582 -1.712,0.913069 -2.24,1.260553 -0.528,0.347485 -1.337124,0.935542 -1.798054,1.306794 -0.46093,0.371251 -1.21693,1.053878 -1.68,1.516948 -0.46307,0.46307 -1.145697,1.21907 -1.516949,1.68 -0.371252,0.46093 -0.959309,1.270054 -1.306793,1.798054 -0.347485,0.528 -0.914734,1.536 -1.260554,2.24 -0.345819,0.704 -0.758835,1.634962 -0.917812,2.068805 -0.158978,0.433842 -0.410096,1.230464 -0.55804,1.77027 -0.147945,0.539807 -0.341912,1.410816 -0.431039,1.935576 -0.08913,0.524761 -0.205071,1.438139 -0.257656,2.02973 -0.05825,0.655312 -0.07643,1.60705 -0.04652,2.435619 0.027,0.748 0.119909,1.833625 0.206471,2.412501 0.08656,0.578875 0.23256,1.370875 0.324439,1.76 0.09188,0.389124 0.259637,1.013499 0.372796,1.387499 0.113159,0.374 0.332894,1.013 0.488299,1.42 0.155405,0.407 0.304836,0.74 0.332069,0.74 0.02723,0 6.401958,-6.352519 14.166054,-14.116709 z"
       id="path1" />
  </g>
</svg>
