<svg xmlns="http://www.w3.org/2000/svg" xmlns:svg="http://www.w3.org/2000/svg" version="1.1" id="svg1" viewBox="93.28 45.85 788.48 856.49">
  <defs id="defs1"/>
  <g id="g1">
    <path style="fill:#000000" d="m 212.39103,901.4252 c -29.1174,-3.52621 -56.4079,-16.42922 -78.119,-36.93488 -1.781,-1.6821 -5.6565,-5.90836 -8.6123,-9.3917 -17.5529,-20.68583 -28.332798,-45.51411 -31.493798,-72.53684 -4.6187,-39.48412 8.878698,-79.31041 36.952598,-109.03465 9.1413,-9.67872 24.577,-20.78204 37.8917,-27.25649 l 8.1666,-3.97117 v -84.87511 c 0,-91.83116 -0.087,-89.4491 3.6061,-99.23867 2.5754,-6.82763 6.0924,-12.17206 11.7007,-17.78033 5.6082,-5.60828 10.9527,-9.12527 17.7803,-11.70066 9.9033,-3.73554 5.5841,-3.60608 120.3049,-3.60608 h 105.9414 v -59.5 -59.5 l -7.7456,-3.6318 c -16.7884,-7.87194 -32.335,-19.78112 -44.43,-34.03486 -24.3523,-28.69875 -35.7932,-66.04214 -31.4939,-102.79649 1.8357,-15.69244 5.848,-29.54261 12.6013,-43.49846 13.4795,-27.855549 34.9259,-49.301979 62.7814,-62.781419 37.1988,-18.00065 80.0578,-18.00065 117.2566,0 27.8555,13.47944 49.302,34.92587 62.7814,62.781419 6.7533,13.95585 10.7656,27.80602 12.6013,43.49846 5.2452,44.84191 -12.8709,89.79867 -48.0112,119.14359 -6.6887,5.58563 -19.0384,13.49784 -26.5127,16.98623 l -6.4278,3 -0.03,60.16667 -0.03,60.16666 h 105.9413 c 114.7209,0 110.4016,-0.12946 120.305,3.60608 6.8276,2.57539 12.172,6.09238 17.7803,11.70066 5.6083,5.60827 9.1253,10.9527 11.7007,17.78033 3.6933,9.79154 3.606,7.38189 3.606,99.53594 v 85.17239 l 7.5,3.68026 c 36.0695,17.69934 62.0935,50.57655 71.5553,90.39861 7.0206,29.54775 3.4628,61.30968 -9.9789,89.08735 -13.4794,27.85555 -34.9259,49.30198 -62.7814,62.78142 -37.1988,18.00065 -80.0578,18.00065 -117.2566,0 -27.8555,-13.47944 -49.302,-34.92587 -62.7814,-62.78142 -18.0007,-37.19875 -18.0007,-80.05782 0,-117.25656 13.3713,-27.63215 34.8536,-49.21448 62.243,-62.53304 l 8.1667,-3.97117 v -56.93376 -56.93375 h -207.6667 -207.6666 v 57.23103 57.23103 l 7.5,3.68026 c 36.0694,17.69934 62.0935,50.57655 71.5552,90.39861 11.6809,49.16158 -6.0403,101.66151 -45.3886,134.46643 -11.2334,9.36534 -28.9848,19.28653 -42.3717,23.68133 -19.7221,6.4746 -40.1291,8.64003 -59.4141,6.30455 z" id="path1"/>
  </g>
</svg>