<?xml version="1.0" encoding="UTF-8" standalone="no"?>
<!-- Created with Inkscape (http://www.inkscape.org/) -->

<svg
   version="1.1"
   id="svg1"
   width="1440"
   height="2966"
   viewBox="0 0 1440 2966"
   sodipodi:docname="Gemini_Generated_Image_fia827fia827fia8.png"
   xmlns:inkscape="http://www.inkscape.org/namespaces/inkscape"
   xmlns:sodipodi="http://sodipodi.sourceforge.net/DTD/sodipodi-0.dtd"
   xmlns="http://www.w3.org/2000/svg"
   xmlns:svg="http://www.w3.org/2000/svg">
  <defs
     id="defs1" />
  <sodipodi:namedview
     id="namedview1"
     pagecolor="#ffffff"
     bordercolor="#000000"
     borderopacity="0.25"
     inkscape:showpageshadow="2"
     inkscape:pageopacity="0.0"
     inkscape:pagecheckerboard="0"
     inkscape:deskcolor="#d1d1d1">
    <inkscape:page
       x="0"
       y="0"
       width="1440"
       height="2966"
       id="page2"
       margin="0"
       bleed="0" />
  </sodipodi:namedview>
  <g
     inkscape:groupmode="layer"
     inkscape:label="Image"
     id="g1">
    <path
       style="fill:#000000;stroke-width:1.09379"
       d="m 249.62774,2943.6762 c -10.46519,-2.6027 -21.20675,-13.0154 -24.41151,-23.6641 -2.14437,-7.1251 -4.05574,-36.365 -3.24244,-49.6019 1.93422,-31.4799 9.72679,-59.3115 25.41095,-90.7564 18.03588,-36.1599 39.93497,-66.5235 74.94303,-103.91 31.11328,-33.2271 64.58554,-63.4951 113.00885,-102.1906 72.18799,-57.6859 115.09426,-88.6016 284.93199,-205.3049 31.1032,-21.3725 49.73281,-34.4577 97.8941,-68.7597 81.83668,-58.2864 143.2323,-108.5961 187.09279,-153.3101 18.4655,-18.825 25.8213,-27.2094 38.3387,-43.7006 39.3966,-51.903 55.8095,-96.2059 53.646,-144.8065 -2.8948,-65.0291 -42.6919,-127.6265 -126.49397,-198.9642 -11.66372,-9.9289 -44.69817,-35.3918 -60.70527,-46.7915 -10.44619,-7.4394 -58.06743,-38.9538 -74.92454,-49.5829 -31.07713,-19.5952 -39.48728,-24.7062 -114.30092,-69.461 -139.24828,-83.3007 -169.56755,-102.349 -222.52834,-139.8052 -69.27585,-48.9949 -125.87704,-99.9 -163.18403,-146.7618 -43.77566,-54.987 -70.08168,-109.7993 -81.32054,-169.4427 -22.53175,-119.5736 18.149,-256.11677 113.10267,-379.6239 75.94961,-98.7884 174.89542,-187.10517 373.74518,-333.59645 33.23722,-24.48563 64.43935,-47.38889 79.71984,-58.51665 84.22587,-61.33606 155.85014,-117.40564 196.51462,-153.83741 19.8019,-17.74079 54.2179,-52.76806 67.0213,-68.21189 21.8697,-26.37962 37.9122,-53.608023 43.959,-74.610299 4.523,-15.709825 9.984,-22.465743 22.9622,-28.407412 11.1969,-5.126139 27.3872,-2.187216 36.7076,6.663307 7.47,7.093428 11.8331,16.49533 11.8331,25.499082 0,12.951685 -7.281,35.772972 -19.1162,59.917422 -18.2115,37.15188 -47.0109,75.0361 -91.3565,120.17493 -59.8912,60.96246 -99.52075,94.79798 -257.04033,219.45918 C 698.48527,577.30524 644.60058,622.66926 583.57515,680.77502 512.2558,748.6822 463.85928,806.34735 428.45586,865.60183 c -39.63188,66.3316 -60.38724,134.02858 -60.38724,196.96257 0,48.8321 13.51419,94.317 39.76283,133.83 17.09081,25.7276 26.70442,37.4787 50.41963,61.6306 27.76146,28.2726 50.56602,47.7758 92.48027,79.0924 31.48774,23.5264 103.03199,70.6752 146.56769,96.5905 149.99108,89.2845 198.76695,119.5557 255.03778,158.2808 92.33648,63.5452 149.72778,114.3996 191.11568,169.3477 39.6211,52.6026 61.7405,103.7788 70.2044,162.4276 2.1043,14.5808 2.2981,19.3894 1.7423,43.2047 -0.6646,28.47 -2.1114,40.0116 -7.8095,62.2951 -6.1642,24.1069 -13.4694,43.3453 -25.825,68.0115 -24.9556,49.8205 -71.4103,104.2526 -136.6409,160.106 -66.58967,57.017 -142.8607,110.938 -289.30705,204.5303 -12.03169,7.6893 -24.3368,15.5762 -27.34472,17.5263 -3.00793,1.9501 -16.54356,10.6585 -30.07919,19.3518 -134.04259,86.089 -199.68192,131.6054 -255.94659,177.4817 -65.41283,53.3353 -106.49659,97.7862 -128.91184,139.4774 -6.26474,11.6521 -13.6303,30.5181 -16.65412,42.6577 -2.34003,9.3945 -2.59086,12.8037 -2.61535,35.5482 l -0.027,25.1571 -3.05177,6.2144 c -3.60289,7.3369 -8.795,12.2024 -17.13341,16.0557 -6.68779,3.0906 -17.23847,4.0816 -24.42495,2.2943 z m 186.76663,-75.0993 c -11.06857,-3.8557 -18.56022,-8.6543 -25.91125,-16.5967 -10.84167,-11.7138 -16.16356,-25.2636 -16.16356,-41.1534 0,-17.1609 5.90328,-31.4584 18.16792,-44.002 8.17301,-8.3591 18.59112,-14.317 28.97975,-16.5732 7.2397,-1.5723 49.21521,-2.4273 194.57965,-3.9639 29.17681,-0.3082 63.63115,-0.7976 76.56521,-1.0873 12.93404,-0.2897 55.75588,-0.7813 95.15962,-1.0926 39.40375,-0.3112 84.19439,-0.805 99.53478,-1.0973 15.34039,-0.2924 57.67002,-0.8353 94.06581,-1.2066 73.4858,-0.7495 73.1007,-0.7783 86.9562,6.4622 9.8487,5.1466 21.2379,16.9943 25.9675,27.0125 5.4087,11.4569 6.6888,17.9644 5.9968,30.4816 -0.6837,12.3616 -3.4393,21.1965 -9.57,30.6819 -11.6314,17.9958 -27.5376,26.616 -51.3796,27.8443 -6.9183,0.3565 -45.0641,0.9071 -84.76869,1.2241 -39.70454,0.3167 -84.00299,0.8134 -98.441,1.1039 -14.43801,0.2904 -52.33779,0.7791 -84.22173,1.086 -61.35012,0.5907 -120.29217,1.3118 -178.83447,2.1882 -19.55148,0.2926 -65.32654,0.8059 -101.72235,1.1405 l -66.17423,0.6084 z m 304.45954,-243.2564 c -34.90174,-4.5761 -58.92719,-38.2572 -52.28253,-73.2943 4.29911,-22.669 24.85978,-43.5124 47.20975,-47.8587 8.08469,-1.5722 33.82831,-2.2093 116.83592,-2.891 39.40375,-0.3236 74.84251,-0.8104 78.75279,-1.0818 3.9103,-0.2713 46.48602,-0.7973 94.61266,-1.1686 l 87.5032,-0.6755 8.7503,2.8097 c 16.3753,5.258 28.6309,15.7048 36.0385,30.7197 9.2443,18.7378 9.2667,37.277 0.068,55.9721 -8.8317,17.9487 -25.7434,29.9201 -46.7564,33.0979 -3.7679,0.5699 -45.7349,1.3454 -93.2599,1.7233 -47.52515,0.378 -88.62427,0.8773 -91.3314,1.1098 -2.70712,0.2324 -39.62249,0.7166 -82.03415,1.076 -42.41167,0.3594 -81.54197,0.8257 -86.95621,1.0364 -5.41426,0.2105 -13.13194,-0.049 -17.15041,-0.575 z M 483.46334,2300.6109 c -23.92136,-5.1335 -41.59811,-22.0406 -47.60668,-45.5339 -3.76522,-14.7219 -2.29879,-28.184 4.69486,-43.0996 4.18003,-8.915 16.08112,-21.0383 25.50029,-25.9767 14.46432,-7.5833 4.52453,-7.0276 169.44817,-9.4743 142.22753,-2.1097 132.93995,-2.0967 140.97486,-0.1983 28.35834,6.7002 47.7037,31.1373 47.7037,60.2595 0,28.0517 -17.75419,51.2681 -45.39223,59.3578 -5.58624,1.6351 -4.09195,1.5999 -168.44347,3.9783 -101.79971,1.4731 -122.69015,1.5864 -126.8795,0.6872 z M 349.67287,2065.3266 c -10.98844,-1.916 -21.95453,-7.6077 -31.18021,-16.1835 -16.99858,-15.8012 -23.58567,-42.4029 -15.97602,-64.5184 3.206,-9.3177 12.03398,-22.2632 18.9243,-27.7511 6.54686,-5.2145 18.59888,-11.0067 26.39259,-12.6846 3.15154,-0.6783 25.86214,-1.4344 53.59564,-1.7841 26.46969,-0.3339 64.86168,-0.8477 85.31554,-1.1418 73.32506,-1.0541 125.04588,-1.7024 217.66395,-2.728 51.73623,-0.5727 105.87877,-1.2965 120.31678,-1.6082 14.43801,-0.3118 56.76763,-0.8676 94.06583,-1.2352 l 67.81491,-0.6681 8.83508,2.8351 c 38.00924,12.1968 54.45564,56.934 33.67774,91.6105 -4.9841,8.3179 -16.2471,18.6319 -24.8084,22.7177 -13.08491,6.2447 -15.00222,6.3994 -88.25379,7.1176 -36.99741,0.3626 -80.31145,0.8972 -96.25342,1.1879 -15.94197,0.2909 -55.07227,0.7795 -86.9562,1.0859 -31.88395,0.3065 -73.72137,0.7993 -92.97205,1.0953 -32.83499,0.5048 -55.06332,0.7866 -172.81864,2.1898 -25.8681,0.3083 -61.55296,0.7668 -79.29968,1.019 -17.74672,0.2522 -34.8845,0 -38.08395,-0.5558 z m 79.64792,-233.4424 c -19.69111,-5.4592 -35.8066,-20.2952 -42.82217,-39.422 -3.16726,-8.6351 -3.54774,-29.6157 -0.70332,-38.7823 4.35306,-14.0285 17.38659,-29.7349 30.28587,-36.4971 13.04887,-6.8404 14.42078,-6.9754 78.32005,-7.7047 31.88395,-0.3639 70.52204,-0.9006 85.86242,-1.1926 54.56918,-1.0391 95.35713,-1.6331 150.39596,-2.1904 30.68078,-0.3107 64.15071,-0.8288 74.37764,-1.1515 22.64251,-0.7145 31.82424,0.7291 43.49887,6.8389 15.94705,8.3459 29.51091,26.429 32.65713,43.538 2.6456,14.3866 -0.96035,33.2851 -8.54597,44.7888 -7.8837,11.9557 -20.64209,21.9849 -32.70904,25.7121 -9.2943,2.8707 -16.32566,3.1977 -83.0277,3.8615 -57.15429,0.5689 -102.50755,1.155 -170.08416,2.1984 -110.02746,1.6987 -151.38616,1.6995 -157.50558,0 z M 592.35705,1303.023 c -6.93199,-1.4777 -19.34458,-7.6487 -25.95408,-12.9034 -7.26103,-5.7726 -15.28726,-17.0423 -18.72878,-26.2969 -3.6669,-9.8611 -4.54077,-27.1456 -1.88827,-37.349 6.62832,-25.4973 29.70561,-44.2873 56.90039,-46.3298 4.81267,-0.3616 48.12671,-0.9324 96.25342,-1.2687 48.1267,-0.3362 91.68684,-0.8198 96.8003,-1.0747 5.11347,-0.2549 46.95089,-0.741 92.97206,-1.0801 46.02116,-0.3391 90.56571,-0.8717 98.98788,-1.1833 10.78213,-0.3988 17.95093,-0.098 24.22853,1.0142 23.6406,4.1911 41.9188,20.7875 48.958,44.4534 2.3025,7.7411 2.3753,24.6902 0.1419,33.1205 -4.4443,16.7769 -17.5939,32.2682 -33.6178,39.6042 -12.2064,5.5882 -14.7246,5.7263 -127.76063,7.0057 -58.05284,0.657 -115.88693,1.4387 -128.52018,1.7372 -49.66375,1.1731 -174.05472,1.5564 -178.77274,0.5507 z M 496.5888,1097.371 c -12.43273,-3.0057 -22.05111,-8.4402 -30.58112,-17.2788 -11.3335,-11.7434 -16.73017,-23.9408 -17.74627,-40.1095 -1.87216,-29.7911 19.02826,-57.5519 48.12055,-63.91578 6.30043,-1.37818 39.72384,-2.07492 188.88541,-3.93754 70.6861,-0.88268 166.17386,-2.08508 212.19502,-2.67191 186.24661,-2.3746 209.28951,-2.50882 216.02331,-1.25752 20.9685,3.89673 40.8361,22.61222 47.0766,44.34705 1.4307,4.9828 1.7413,9.2606 1.3502,18.5943 -0.4313,10.2945 -1.0326,13.4632 -3.9862,21.0112 -6.5276,16.6808 -21.2006,30.4503 -38.1562,35.8066 -10.2655,3.2429 -20.368,3.6881 -102.5378,4.5194 -59.07951,0.5978 -117.56213,1.3082 -180.47518,2.1927 -21.05543,0.296 -63.87727,0.7913 -95.15963,1.101 -31.28236,0.3096 -67.70552,0.7985 -80.94036,1.0868 -55.11703,1.2001 -159.87004,1.5269 -164.06833,0.512 z m 96.07971,-191.46208 c -15.57569,-2.65693 -30.16635,-11.80527 -39.34702,-24.67085 -6.5255,-9.14467 -9.91266,-17.88028 -11.47088,-29.58376 -1.11842,-8.40026 -1.03825,-10.84477 0.59657,-18.19303 5.32771,-23.94698 21.12768,-41.15644 44.37919,-48.33813 7.34326,-2.26811 10.43431,-2.35561 135.62981,-3.83927 52.63859,-0.62381 130.20557,-1.63622 172.37108,-2.24985 85.19124,-1.23973 85.76231,-1.20712 99.98234,5.70941 9.7643,4.74931 22.5414,17.66655 27.265,27.56423 15.0135,31.4578 2.5446,68.58046 -28.01097,83.39544 -12.77404,6.19346 -18.85057,6.8493 -64.33446,6.94369 -22.25861,0.0459 -46.62276,0.31775 -54.14254,0.60345 -7.51981,0.2857 -38.77483,0.77604 -69.4556,1.08962 -115.34291,1.17912 -159.31126,1.68335 -183.20963,2.10117 -13.53563,0.23671 -27.14943,0 -30.25289,-0.53212 z M 395.41334,409.94111 c -22.92102,-6.31872 -40.53305,-24.98625 -45.38742,-48.10756 -0.88414,-4.21109 -1.60751,-9.62535 -1.60751,-12.03168 0,-7.55479 3.06152,-19.37416 7.22464,-27.89162 5.17755,-10.59291 16.46226,-22.01598 26.7155,-27.04307 14.1852,-6.95487 7.71141,-6.65516 161.81006,-7.4915 127.78207,-0.69351 141.17729,-0.60125 147.43551,1.01548 25.50384,6.5885 42.60076,25.84835 46.46192,52.33977 1.03532,7.10327 0.93716,10.04119 -0.60373,18.07369 -4.84087,25.23454 -22.07759,43.85496 -46.17911,49.88616 -10.10438,2.52855 -286.98867,3.69865 -295.86986,1.25033 z M 369.16241,186.71466 c -18.4727,-4.97676 -33.7121,-17.51951 -42.38948,-34.88856 -2.97487,-5.95463 -5.73722,-18.74531 -5.73722,-26.56533 0,-8.61322 3.55212,-22.04416 7.78822,-29.448098 8.59733,-15.026558 24.7265,-26.951766 41.16447,-30.435199 11.43785,-2.423846 560.8275,-2.344175 571.12375,0.0828 10.06569,2.372657 19.26683,7.661192 27.51794,15.816427 12.53854,12.392736 18.66026,26.65705 18.77674,43.75155 0.12054,17.68489 -5.5734,31.50016 -18.30127,44.40471 -8.72352,8.84462 -19.46834,14.8134 -31.17298,17.31674 -11.03698,2.36053 -560.00381,2.32669 -568.77017,-0.0351 z"
       id="path1" />
  </g>
</svg>
