<?xml version="1.0" encoding="UTF-8" standalone="no"?>
<!-- Created with Inkscape (http://www.inkscape.org/) -->

<svg
   version="1.1"
   id="svg1"
   width="182.88"
   height="148.39999"
   viewBox="0 0 182.88 148.39999"
   sodipodi:docname="visible_icon.png"
   xmlns:inkscape="http://www.inkscape.org/namespaces/inkscape"
   xmlns:sodipodi="http://sodipodi.sourceforge.net/DTD/sodipodi-0.dtd"
   xmlns="http://www.w3.org/2000/svg"
   xmlns:svg="http://www.w3.org/2000/svg">
  <defs
     id="defs1" />
  <sodipodi:namedview
     id="namedview1"
     pagecolor="#ffffff"
     bordercolor="#000000"
     borderopacity="0.25"
     inkscape:showpageshadow="2"
     inkscape:pageopacity="0.0"
     inkscape:pagecheckerboard="0"
     inkscape:deskcolor="#d1d1d1">
    <inkscape:page
       x="0"
       y="0"
       width="182.88"
       height="148.39999"
       id="page2"
       margin="0"
       bleed="0" />
  </sodipodi:namedview>
  <g
     inkscape:groupmode="layer"
     inkscape:label="Image"
     id="g1">
    <path
       style="fill:#000000"
       d="M 87.400002,133.3535 C 69.300048,132.65516 51.570646,126.96214 36.467137,116.99863 30.505664,113.06596 25.693038,109.13953 20.636752,104.08324 15.626389,99.072881 11.86022,94.471588 7.9636796,88.599996 5.1018473,84.287579 2.8735337,80.342851 0.76724316,75.860324 L 0.00617643,74.240651 0.41213107,73.340324 C 0.98581767,72.068001 2.6589695,68.740578 3.4393752,67.319997 8.7456185,57.660984 15.285474,49.24231 23.200001,41.88239 39.339819,26.873563 59.666794,17.681184 81.480002,15.526678 92.558809,14.432416 103.64522,15.15916 114.43172,17.68675 c 16.86321,3.951541 32.42997,12.275562 45.24828,24.19564 7.91453,7.35992 14.45439,15.778594 19.76063,25.437607 0.78041,1.420581 2.45356,4.748004 3.02724,6.020327 l 0.40596,0.900327 -0.76107,1.619673 c -2.10629,4.482527 -4.3346,8.427255 -7.19643,12.739672 -3.89655,5.871592 -7.66271,10.472885 -12.67308,15.483244 -5.05628,5.05629 -9.86891,8.98272 -15.83038,12.91539 -17.3983,11.47734 -37.9325,17.1682 -59.012868,16.35487 z m 9.320001,-16.0707 c 7.496017,-0.52969 14.074537,-1.77823 20.679997,-3.92487 11.17142,-3.63048 21.11074,-9.34764 30.1335,-17.332988 1.47718,-1.307336 5.34411,-5.174273 6.65145,-6.651451 4.02998,-4.553535 7.67091,-9.598724 10.32954,-14.313494 l 0.46239,-0.82 -0.46239,-0.82 c -2.65863,-4.71477 -6.29956,-9.75996 -10.32954,-14.313494 -1.30734,-1.477178 -5.17427,-5.344115 -6.65145,-6.651451 -9.02276,-7.985344 -18.96208,-13.702508 -30.1335,-17.33299 -6.6598,-2.1643 -13.15759,-3.391884 -20.839997,-3.937163 -1.835864,-0.130305 -8.404137,-0.130305 -10.240001,0 -7.682407,0.545279 -14.180197,1.772863 -20.84,3.937163 -11.171414,3.630482 -21.110735,9.347646 -30.133496,17.33299 -1.477178,1.307336 -5.344115,5.174273 -6.651451,6.651451 -4.02998,4.553534 -7.670914,9.598724 -10.329541,14.313494 l -0.462393,0.82 0.462393,0.82 c 2.658627,4.71477 6.299561,9.759959 10.329541,14.313494 1.307336,1.477178 5.174273,5.344115 6.651451,6.651451 12.113629,10.720828 26.333878,17.584488 41.879629,20.213958 3.656243,0.61843 6.200389,0.88285 11.093867,1.15303 0.980949,0.0542 7.239827,-0.0272 8.400001,-0.10913 z m -7.280001,-5.48962 c -5.467649,-0.36468 -10.226835,-1.62279 -14.796777,-3.91157 -3.750296,-1.87828 -6.725047,-4.03331 -9.768287,-7.07655 -1.965353,-1.965353 -3.282238,-3.55566 -4.674504,-5.645064 -3.542416,-5.316181 -5.48659,-10.785608 -6.213478,-17.479999 -0.130993,-1.206401 -0.130993,-5.593599 0,-6.8 0.546532,-5.033372 1.743353,-9.227512 3.811431,-13.356776 1.878278,-3.750296 4.03331,-6.725047 7.076551,-9.768287 3.04324,-3.043241 6.017991,-5.198273 9.768287,-7.07655 3.584262,-1.795122 7.578398,-3.035548 11.556777,-3.589094 1.936637,-0.269461 2.78823,-0.322232 5.2,-0.322232 2.411771,0 3.263364,0.05277 5.200001,0.322232 3.978377,0.553546 7.972517,1.793972 11.556777,3.589094 3.7503,1.878277 6.72505,4.033309 9.76829,7.07655 3.04324,3.04324 5.19827,6.017991 7.07655,9.768287 1.79512,3.584261 3.03555,7.578397 3.58909,11.556776 0.26946,1.936636 0.32223,2.78823 0.32223,5.2 0,2.41177 -0.0528,3.263364 -0.32223,5.2 -0.55354,3.978379 -1.79397,7.972515 -3.58909,11.556776 -1.87828,3.750296 -4.03331,6.725046 -7.07655,9.768287 -3.04324,3.04324 -6.01799,5.19827 -9.76829,7.07655 -4.00942,2.00805 -8.288874,3.25326 -12.916777,3.75843 -1.062183,0.11595 -4.855836,0.21611 -5.800001,0.15314 z m 3.8,-16.0345 c 2.834008,-0.261447 5.141299,-0.909271 7.679998,-2.156334 4.29006,-2.107364 7.69499,-5.512297 9.80235,-9.802349 0.98852,-2.012363 1.57498,-3.796557 1.91084,-5.81335 0.43435,-2.608179 0.43435,-4.805121 0,-7.4133 -0.70684,-4.244447 -2.87116,-8.407431 -5.99513,-11.531404 -2.13367,-2.133665 -5.02158,-3.988797 -7.786862,-5.002108 -4.163933,-1.525833 -8.86998,-1.726162 -13.129041,-0.558883 -3.574411,0.979637 -6.931761,2.932543 -9.560209,5.560991 -2.133666,2.133666 -3.988798,5.021578 -5.002108,7.786859 -1.525834,4.163933 -1.726163,8.869979 -0.558884,13.12904 0.979637,3.574411 2.932544,6.931761 5.560992,9.560209 2.133665,2.133665 5.021578,3.988797 7.786859,5.002107 2.895486,1.061024 6.298322,1.514624 9.291195,1.238522 z"
       id="path1" />
  </g>
</svg>
